<svg width="32" height="32" viewBox="0 0 32 32" fill="none" xmlns="http://www.w3.org/2000/svg">
<path d="M2 21.33C2 15.84 11.06 6 18.1 6C22.26 6 23.18 8.55 23.18 10.75C23.18 15.75 19.75 18.73 19.69 22.6C19.69 23.97 20.3 24.61 21.04 24.61C22.69 24.61 25.94 21.48 28.08 18.1C28.26 17.86 28.45 17.76 28.63 17.76C28.94 17.76 29.18 18.1 29.18 18.89C29.18 22.46 23.92 26.33 19.57 26.33C16.39 26.33 15.59 24.47 15.59 22.17C15.59 17.86 18.71 14.82 18.71 10.61C18.71 9.24 18.04 8.55 17.18 8.55C14.18 8.55 6.29 17.02 6.29 22.75C6.29 23.83 6.78 24.51 7.76 24.51C11.92 24.51 21.96 14.37 27.9 7.03C28.39 6.39 28.94 6.2 29.12 6.98C29.43 8.55 28.88 10.31 26.86 12.27C18.1 20.69 14.12 26.13 7.02 26.13C3.78 26.13 2 24.12 2 21.33Z" fill="white"/>
</svg>

